<?xml version="1.0" encoding="utf-8"?><svg viewBox="0 0 94 80" xmlns="http://www.w3.org/2000/svg" xmlns:xlink="http://www.w3.org/1999/xlink"><style>:root>svg{display:none}:root>svg:target{display:block}</style><svg fill="none" viewBox="0 0 40 40" id="arrow" xmlns="http://www.w3.org/2000/svg"><g clip-path="url(#aa)" fill-rule="evenodd" clip-rule="evenodd"><path d="M20 40c11.046 0 20-8.954 20-20S31.046 0 20 0 0 8.954 0 20s8.954 20 20 20z" fill="#ECB84C"/><path d="M28 19H15.8l5.6-5.6L20 12l-8 8 8 8 1.4-1.4-5.6-5.6H28v-2z" fill="#FAFAFA"/></g><defs><clipPath id="aa"><path fill="#fff" d="M0 0h40v40H0z"/></clipPath></defs></svg><svg fill="none" viewBox="0 0 33 33" id="borderArticle" xmlns="http://www.w3.org/2000/svg"><path d="M33 2V0H0v33h2V2h31z" fill="#ECB84C"/></svg><svg viewBox="0 0 16 16" id="conatctFacebook" xmlns="http://www.w3.org/2000/svg"><g clip-path="url(#ca)"><path fill-rule="evenodd" clip-rule="evenodd" d="M8 0C3.589 0 0 3.589 0 8c0 4.41 3.589 8 8 8 4.41 0 8-3.59 8-8 0-4.411-3.588-8-8-8zm1.99 8.282H8.688v4.639H6.759V8.28h-.916V6.643h.916v-1.06c0-.76.361-1.947 1.947-1.947l1.429.006v1.591H9.098c-.17 0-.41.085-.41.447v.963h1.47l-.168 1.64z"/></g><defs><clipPath id="ca"><path fill="#fff" d="M0 0h16v16H0z"/></clipPath></defs></svg><svg viewBox="0 0 16 13" id="contactEmail" xmlns="http://www.w3.org/2000/svg"><g clip-path="url(#da)"><path fill-rule="evenodd" clip-rule="evenodd" d="M14.4 0H1.6C.72 0 0 .731 0 1.625v9.75C0 12.269.72 13 1.6 13h12.8c.88 0 1.6-.731 1.6-1.625v-9.75C16 .731 15.28 0 14.4 0zm0 3.25L8 7.313 1.6 3.25V1.625L8 5.688l6.4-4.063V3.25z"/></g><defs><clipPath id="da"><path fill="#fff" d="M0 0h16v13H0z"/></clipPath></defs></svg><svg viewBox="0 0 16 16" id="contactInstagram" xmlns="http://www.w3.org/2000/svg"><g clip-path="url(#ea)" fill-rule="evenodd" clip-rule="evenodd"><path d="M7.944 9.535a1.59 1.59 0 0 0 1.291-2.518 1.588 1.588 0 0 0-1.29-.663c-.53 0-1 .262-1.29.663a1.591 1.591 0 0 0 1.289 2.518zm3.473-3.536V4.467h-.2l-1.332.005.005 1.532 1.527-.005z"/><path d="M7.944 0C3.564 0 0 3.564 0 7.944s3.564 7.945 7.944 7.945 7.945-3.564 7.945-7.945C15.889 3.564 12.325 0 7.944 0zm4.518 7.017v3.7c0 .963-.783 1.746-1.746 1.746H5.172a1.748 1.748 0 0 1-1.746-1.746V5.172c0-.963.783-1.746 1.746-1.746h5.544c.963 0 1.746.783 1.746 1.746v1.844z"/><path d="M10.416 7.944a2.474 2.474 0 0 1-2.472 2.472 2.474 2.474 0 0 1-2.289-3.399H4.306v3.7c0 .478.388.865.866.865h5.544a.866.866 0 0 0 .866-.866V7.018h-1.35c.118.286.184.6.184.927z"/></g><defs><clipPath id="ea"><path fill="#fff" d="M0 0h16v16H0z"/></clipPath></defs></svg><svg viewBox="0 0 17 16" id="contactShape" xmlns="http://www.w3.org/2000/svg"><path fill-rule="evenodd" clip-rule="evenodd" d="M17 7.448c0 4.107-3.813 7.449-8.5 7.449a9.443 9.443 0 0 1-3.469-.648C3.103 15.332.437 15.706.323 15.72a.284.284 0 0 1-.293-.15.27.27 0 0 1 .053-.318c.652-.634 1.1-1.973 1.268-3.776C.466 10.274 0 8.884 0 7.448 0 3.341 3.813 0 8.5 0 13.187 0 17 3.341 17 7.448zm-11.333 0c0-.608-.509-1.103-1.134-1.103-.625 0-1.133.495-1.133 1.103 0 .609.508 1.104 1.133 1.104s1.134-.495 1.134-1.104zm3.966 0c0-.608-.508-1.103-1.133-1.103s-1.133.495-1.133 1.103c0 .609.508 1.104 1.133 1.104s1.133-.495 1.133-1.104zm3.967 0c0-.608-.508-1.103-1.133-1.103s-1.134.495-1.134 1.103c0 .609.509 1.104 1.134 1.104.625 0 1.133-.495 1.133-1.104z"/></svg><svg viewBox="0 0 16 16" id="contactYoutube" xmlns="http://www.w3.org/2000/svg"><g clip-path="url(#ga)" fill-rule="evenodd" clip-rule="evenodd"><path d="m6.526 9.728 3.582-1.857-3.582-1.869v3.726z"/><path d="M7.98 0a7.98 7.98 0 1 0 0 15.96A7.98 7.98 0 0 0 7.98 0zm5.436 10.643a1.424 1.424 0 0 1-1.218 1.107c-1.397.156-2.81.157-4.219.156-1.408.001-2.822 0-4.22-.156a1.422 1.422 0 0 1-1.217-1.107c-.196-.853-.196-1.785-.196-2.663 0-.879.002-1.81.198-2.664.138-.6.628-1.041 1.218-1.107 1.397-.156 2.811-.157 4.22-.156 1.407-.001 2.822 0 4.218.156.59.066 1.08.508 1.219 1.107.196.853.194 1.785.194 2.664 0 .878 0 1.81-.197 2.663z"/></g><defs><clipPath id="ga"><path fill="#fff" d="M0 0h16v16H0z"/></clipPath></defs></svg><svg fill="none" viewBox="0 0 32 32" id="dot" xmlns="http://www.w3.org/2000/svg"><g clip-path="url(#ha)" fill-rule="evenodd" clip-rule="evenodd"><path opacity=".747" d="M16 32c8.837 0 16-7.163 16-16S24.837 0 16 0 0 7.163 0 16s7.163 16 16 16z" fill="#ECB84C"/><path d="M16 21a5 5 0 1 0 0-10 5 5 0 0 0 0 10z" fill="#FFD600"/></g><defs><clipPath id="ha"><path fill="#fff" d="M0 0h32v32H0z"/></clipPath></defs></svg><svg fill="none" viewBox="0 0 94 80" id="reviews" xmlns="http://www.w3.org/2000/svg"><g clip-path="url(#ia)" fill-rule="evenodd" clip-rule="evenodd" fill="#ECB84C"><path d="M86.762 26.39c-4.523-4.515-10.85-7.73-17.816-9.053a1.55 1.55 0 0 0-1.81 1.242 1.558 1.558 0 0 0 1.235 1.82C81.636 22.92 90.9 32.194 90.9 42.95c0 8.86-6.27 16.823-16.364 20.781a1.557 1.557 0 0 0-.969 1.215c-.612 4 .224 8.071 2.267 11.462-4.46-1.198-8.073-4.64-9.478-9.305a1.55 1.55 0 0 0-1.617-1.1 37.83 37.83 0 0 1-3.278.144c-9.64 0-18.688-3.74-24.204-10.006a1.543 1.543 0 0 0-2.188-.133c-.64.57-.7 1.555-.132 2.2 6.095 6.922 16.01 11.055 26.524 11.055.772 0 1.554-.022 2.337-.068a17.088 17.088 0 0 0 5.53 7.398 16.384 16.384 0 0 0 10.023 3.394 1.55 1.55 0 0 0 1.43-.959c.24-.58.11-1.25-.33-1.696-2.856-2.901-4.291-6.977-3.926-11.048 5.004-2.113 9.247-5.244 12.312-9.093C92.215 52.949 94 48.025 94 42.95c0-6.02-2.57-11.9-7.238-16.56z"/><path d="M65.077 26.326c0-7.097-3.432-13.746-9.663-18.723C49.288 2.709 41.164.014 32.538.014c-8.626 0-16.75 2.695-22.876 7.589C3.432 12.58 0 19.229 0 26.326c0 5.076 1.785 10 5.162 14.24 3.065 3.85 7.308 6.98 12.312 9.093.365 4.072-1.07 8.147-3.927 11.048a1.565 1.565 0 0 0-.33 1.697c.242.58.806.959 1.43.959 3.65 0 7.115-1.174 10.023-3.394a17.088 17.088 0 0 0 5.531-7.398c.783.045 1.565.068 2.337.068 8.626 0 16.75-2.695 22.876-7.588 6.231-4.978 9.663-11.627 9.663-18.725zM29.26 49.379a1.549 1.549 0 0 0-1.617 1.1c-1.405 4.665-5.017 8.107-9.477 9.305a17.224 17.224 0 0 0 2.266-11.462 1.557 1.557 0 0 0-.969-1.215C9.37 43.148 3.1 35.186 3.1 26.326c0-12.79 13.206-23.195 29.44-23.195 16.233 0 29.439 10.405 29.439 23.195 0 12.79-13.206 23.196-29.44 23.196-1.08 0-2.184-.048-3.278-.144z"/></g><defs><clipPath id="ia"><path fill="#fff" d="M0 0h94v80H0z"/></clipPath></defs></svg><svg fill="none" viewBox="0 0 80 80" id="route" xmlns="http://www.w3.org/2000/svg"><g clip-path="url(#ja)" fill-rule="evenodd" clip-rule="evenodd" fill="#ECB84C"><path d="M28.028 38.636c-3.028-3.42-7.065-5.303-11.37-5.303-4.306 0-8.343 1.883-11.37 5.303-6.15 6.948-6.15 18.25 0 25.199l11.37 12.844 11.369-12.844c6.15-6.948 6.15-18.251.001-25.199zm-1.997 23.43-9.372 10.589-9.374-10.588c-5.288-5.972-5.288-15.691 0-21.663C9.8 37.564 13.128 36 16.657 36c3.53 0 6.86 1.564 9.372 4.404 5.288 5.972 5.288 15.69.002 21.663zm38.965-29.39 8.619-9.715c4.637-5.226 4.637-13.728 0-18.954C71.32 1.423 68.26 0 64.995 0c-3.264 0-6.326 1.423-8.619 4.007-4.637 5.226-4.637 13.728 0 18.954l8.62 9.715zM58.371 5.777c1.78-2.006 4.132-3.11 6.624-3.11 2.493 0 4.845 1.104 6.625 3.11 3.77 4.25 3.77 11.164 0 15.414l-6.624 7.468-6.625-7.468c-3.771-4.25-3.771-11.164 0-15.414zM70.139 72.69a1.333 1.333 0 0 0-1.594 1.007 4.625 4.625 0 0 1-.884 1.856 1.332 1.332 0 1 0 2.096 1.648 7.346 7.346 0 0 0 1.39-2.917 1.334 1.334 0 0 0-1.008-1.595zM42.66 41.333a4.69 4.69 0 0 1-1.67-.306 1.338 1.338 0 0 0-1.72.77 1.336 1.336 0 0 0 .77 1.722c.835.317 1.713.48 2.617.481h.476a1.332 1.332 0 1 0 0-2.667h-.473zm-3.165-8.432c.241 0 .484-.065.704-.201a4.603 4.603 0 0 1 1.938-.67 1.335 1.335 0 0 0 1.18-1.473 1.335 1.335 0 0 0-1.472-1.18 7.23 7.23 0 0 0-3.058 1.059 1.333 1.333 0 0 0 .708 2.465zm-15.41 44.432H21.42a1.332 1.332 0 1 0 0 2.667h2.666a1.332 1.332 0 1 0 0-2.667zm23.905-24c-.114 0-.227.003-.34.008a1.333 1.333 0 0 0 .053 2.666c.018 0 .037 0 .056-.002L50.37 56a1.332 1.332 0 1 0 0-2.667h-2.38zM47.324 32h2.667a1.332 1.332 0 1 0 0-2.667h-2.667c-.737 0-1.333.596-1.333 1.334 0 .737.596 1.333 1.333 1.333zm16.38 21.333c-.737 0-1.333.596-1.333 1.334 0 .737.596 1.333 1.333 1.333h2.667a1.332 1.332 0 1 0 0-2.667h-2.667zm4.764-10.666c0-.738-.596-1.334-1.333-1.334h-2.667c-.737 0-1.333.596-1.333 1.334 0 .737.596 1.333 1.333 1.333h2.667c.736 0 1.333-.596 1.333-1.333zM55.704 56h2.667a1.332 1.332 0 1 0 0-2.667h-2.667a1.333 1.333 0 1 0 0 2.667zm2.286-24a1.332 1.332 0 1 0 0-2.667h-2.666c-.737 0-1.333.596-1.333 1.334 0 .737.596 1.333 1.333 1.333h2.667zm-9.522 9.333c-.737 0-1.333.596-1.333 1.334 0 .737.596 1.333 1.333 1.333h2.667a1.332 1.332 0 1 0 0-2.667h-2.667zm12 1.334c0-.738-.596-1.334-1.333-1.334h-2.667c-.737 0-1.333.596-1.333 1.334 0 .737.596 1.333 1.333 1.333h2.667c.736 0 1.333-.596 1.333-1.333zm18.767 4.843a1.333 1.333 0 1 0-2.634.422c.038.237.059.479.056.736 0 .448-.064.89-.189 1.317a1.333 1.333 0 1 0 2.56.75 7.352 7.352 0 0 0 .296-2.058 7.092 7.092 0 0 0-.09-1.168zm-23.15 29.823H53.42a1.332 1.332 0 1 0 0 2.667h2.666a1.332 1.332 0 1 0 0-2.667zm-8 0H45.42a1.332 1.332 0 1 0 0 2.667h2.666a1.332 1.332 0 1 0 0-2.667zm14.668-10.666c0-.738-.596-1.334-1.333-1.334h-2.667c-.737 0-1.333.596-1.333 1.334 0 .737.596 1.333 1.333 1.333h2.667c.736 0 1.333-.596 1.333-1.333zm-8 0c0-.738-.596-1.334-1.333-1.334h-2.667c-.737 0-1.333.596-1.333 1.334 0 .737.596 1.333 1.333 1.333h2.667c.736 0 1.333-.596 1.333-1.333zm9.237 10.666h-2.573c-.737 0-1.333.596-1.333 1.334 0 .737.596 1.333 1.333 1.333l2.628-.001.039-1.334V80c.737 0 1.287-.596 1.287-1.334 0-.736-.643-1.332-1.38-1.332zm4.718-7.041a1.333 1.333 0 0 0 1.047-2.157 7.392 7.392 0 0 0-2.506-2.038 1.334 1.334 0 0 0-1.188 2.388c.618.306 1.17.755 1.596 1.299.264.333.655.508 1.051.508zm5.085-17.32a4.63 4.63 0 0 1-1.802.361h-.287c-.737 0-1.333.596-1.333 1.334 0 .737.596 1.333 1.333 1.333h.287a7.28 7.28 0 0 0 2.833-.57 1.332 1.332 0 1 0-1.03-2.458zM37.372 39.807a1.335 1.335 0 0 0 .85-1.684 4.659 4.659 0 0 1-.194-2.05 1.332 1.332 0 0 0-1.156-1.489 1.327 1.327 0 0 0-1.49 1.156 7.337 7.337 0 0 0 .305 3.216 1.335 1.335 0 0 0 1.685.85zm-5.287 37.526H29.42a1.332 1.332 0 1 0 0 2.667h2.666a1.332 1.332 0 1 0 0-2.667zm13.411-9.874a1.333 1.333 0 0 0 .556-2.546 4.717 4.717 0 0 1-1.637-1.248 1.333 1.333 0 1 0-2.042 1.716 7.382 7.382 0 0 0 2.57 1.956c.18.082.368.122.553.122zm30.165-25.142a7.251 7.251 0 0 0-3.089-.962 1.333 1.333 0 1 0-.208 2.659 4.59 4.59 0 0 1 1.96.61 1.333 1.333 0 1 0 1.337-2.307zM40.085 77.333H37.42a1.332 1.332 0 1 0 0 2.667h2.666a1.332 1.332 0 1 0 0-2.667zm3.322-17.548a4.637 4.637 0 0 1 .825-1.884 1.334 1.334 0 0 0-2.148-1.58 7.307 7.307 0 0 0-1.297 2.963 1.335 1.335 0 0 0 1.31 1.585 1.342 1.342 0 0 0 1.31-1.084z"/><path d="M65.324 20c4.043 0 7.333-3.29 7.333-7.333s-3.29-7.334-7.333-7.334-7.333 3.291-7.333 7.334c0 4.042 3.29 7.333 7.333 7.333zm0-12a4.672 4.672 0 0 1 4.667 4.667 4.672 4.672 0 0 1-4.667 4.666 4.672 4.672 0 0 1-4.667-4.666A4.673 4.673 0 0 1 65.324 8zM16.657 41.333c-4.412 0-8 3.588-8 8s3.588 8 8 8 8-3.588 8-8-3.588-8-8-8zm0 13.334a5.339 5.339 0 0 1-5.333-5.334A5.339 5.339 0 0 1 16.657 44a5.339 5.339 0 0 1 5.334 5.333 5.339 5.339 0 0 1-5.334 5.334z"/></g><defs><clipPath id="ja"><path fill="#fff" d="M0 0h80v80H0z"/></clipPath></defs></svg><svg fill="none" viewBox="0 0 94 72" id="tickets" xmlns="http://www.w3.org/2000/svg"><g clip-path="url(#ka)" fill-rule="evenodd" clip-rule="evenodd"><path d="M93.527 25.11a3.724 3.724 0 0 0-2.226-1.81L13.632.176A3.733 3.733 0 0 0 12.568.02 3.767 3.767 0 0 0 8.98 2.713L.154 32.61A3.766 3.766 0 0 0 2.4 37.184V68.2c0 2.073 1.68 3.76 3.743 3.76h81.01c2.064 0 3.743-1.687 3.743-3.76V37.9l2.93-9.929a3.746 3.746 0 0 0-.298-2.862zm-5.363 43.091c0 .56-.454 1.017-1.012 1.017h-20.85v-1.636c0-.757-.61-1.372-1.365-1.372a1.37 1.37 0 0 0-1.366 1.372v1.636H6.142A1.015 1.015 0 0 1 5.13 68.2V38.012l12.627 3.76-.884.887-6.175-.68-1.278 1.04 4.913 2.19-1.717 1.724-1.83-.18a.102.102 0 0 0-.084.032l-.64.644a.104.104 0 0 0-.007.146c.01.01.021.02.034.024l1.593.729a1.049 1.049 0 0 0 1.024 1.028l.727 1.598a.103.103 0 0 0 .166.031l.64-.647a.105.105 0 0 0 .033-.084l-.18-1.835 1.718-1.725 2.181 4.934 1.036-1.284-.677-6.2 1.686-1.694 2.837.845v.75c0 .252.204.457.455.457h3.599l10.35 3.08H23.328a.456.456 0 0 0-.455.458v2.91c0 .253.204.458.455.458h26.799l13.487 4.015a1.377 1.377 0 0 0-.043.335v5.912c0 .757.611 1.371 1.366 1.371.754 0 1.365-.614 1.365-1.371v-5.447l14.046 4.182c.347.103.705.155 1.065.155A3.768 3.768 0 0 0 85 57.87l3.163-10.715V68.2zm3.043-41.008-8.824 29.896a1.019 1.019 0 0 1-.97.729 1.01 1.01 0 0 1-.288-.043l-19.99-5.95.463-1.57a1.365 1.365 0 1 0-2.619-.78l-.463 1.57-55.06-16.392a1.018 1.018 0 0 1-.683-1.263l8.825-29.897a1.02 1.02 0 0 1 .97-.729c.096 0 .194.015.288.043l55.06 16.392-.571 1.936a1.372 1.372 0 0 0 1.31 1.762c.589 0 1.132-.386 1.308-.982l.572-1.937 19.99 5.951c.259.077.473.251.602.49.129.238.157.513.08.773z" fill="#ECB84C"/><path d="M64.023 37.215a1.365 1.365 0 0 0-1.697.925l-1.673 5.668a1.373 1.373 0 0 0 1.31 1.762c.589 0 1.133-.386 1.309-.983l1.673-5.668a1.373 1.373 0 0 0-.922-1.704zm3.347-11.337a1.365 1.365 0 0 0-1.698.926l-1.673 5.668a1.372 1.372 0 0 0 1.31 1.761c.589 0 1.133-.386 1.309-.982l1.673-5.668a1.373 1.373 0 0 0-.922-1.705zM13.358 15.053l1.321 1.153a1.048 1.048 0 0 0 .69 1.277l.246 1.74a.103.103 0 0 0 .15.078l.798-.439a.104.104 0 0 0 .054-.07l.347-1.811 2.136-1.164.694 5.354 1.356-.936 1.107-6.139 2.346-1.278c.507-.276.695-.913.42-1.423a1.043 1.043 0 0 0-1.417-.422l-2.346 1.279-5.728-2.414-1.52.632 4.091 3.502-2.133 1.164-1.705-.696a.102.102 0 0 0-.089.007l-.796.434a.105.105 0 0 0-.022.172zm42.465 27.031L8.743 28.068a.456.456 0 0 0-.567.308l-.823 2.791a.46.46 0 0 0 .307.568l47.08 14.017a.447.447 0 0 0 .347-.037.457.457 0 0 0 .22-.272l.823-2.79a.458.458 0 0 0-.307-.569zm1.955-6.622L10.697 21.446a.454.454 0 0 0-.566.308l-.824 2.792a.457.457 0 0 0 .307.568L56.695 39.13a.448.448 0 0 0 .347-.037.458.458 0 0 0 .219-.272l.824-2.79a.457.457 0 0 0-.307-.569zm1.954-6.622L26.057 18.817a.455.455 0 0 0-.566.308l-.824 2.791a.46.46 0 0 0 .307.568L58.65 32.508a.448.448 0 0 0 .346-.036.457.457 0 0 0 .22-.272l.823-2.791a.458.458 0 0 0-.307-.568zm1.001-2.935a.455.455 0 0 0 .437-.327l.824-2.79a.459.459 0 0 0-.307-.57L28.01 12.195a.455.455 0 0 0-.566.308l-.824 2.791a.458.458 0 0 0 .307.568l33.676 10.025c.043.013.087.02.13.02zm-2.28 35.491H9.347a.456.456 0 0 0-.455.457v2.91c0 .253.204.458.455.458h49.106a.456.456 0 0 0 .455-.457v-2.911a.456.456 0 0 0-.455-.457z" fill="#ECB84C"/><path d="m58.453 54.49-49.106-.001a.454.454 0 0 0-.455.457v2.911c0 .252.204.457.455.457h49.106a.456.456 0 0 0 .455-.457v-2.91a.456.456 0 0 0-.455-.458z" fill="#ECB04C"/></g><defs><clipPath id="ka"><path fill="#fff" d="M0 0h94v72H0z"/></clipPath></defs></svg><svg fill="none" viewBox="0 0 80 76" id="venues" xmlns="http://www.w3.org/2000/svg"><g clip-path="url(#la)" fill-rule="evenodd" clip-rule="evenodd" fill="#ECB84C"><path d="M74.483.038H5.379C2.345.038 0 2.384 0 5.42v11.182c0 1.933.828 3.865 2.207 5.108.599.48 1.25.88 1.931 1.181v51.69c0 .828.552 1.38 1.38 1.38h68.965c.828 0 1.38-.552 1.38-1.38V22.896C78.28 21.733 80 19.16 80 16.327V5.421C80 2.384 77.655.038 74.483.038zM57.93 2.798h8.138v13.805c0 .277.022.554.06.83-.367 1.927-2 3.311-4.06 3.311-2.345 0-4.138-1.794-4.138-4.14V2.798zm-11.034 0h8.276v13.805c0 2.347-1.794 4.141-4.139 4.141-2.344 0-4.137-1.794-4.137-4.14V2.798zm-11.035 0h8.276v13.805c0 2.347-1.793 4.141-4.138 4.141-2.345 0-4.138-1.794-4.138-4.14V2.798zm-11.034 0h8.276v13.805c0 2.347-1.793 4.141-4.138 4.141-2.345 0-4.138-1.794-4.138-4.14V2.798zm-11.035 0h8.276v13.805c0 2.347-1.793 4.141-4.138 4.141-2.345 0-4.138-1.794-4.138-4.14V2.798zM2.76 16.604V5.421c0-1.518 1.103-2.622 2.62-2.622h5.655v13.528c0 2.064-1.446 3.887-3.324 4.342a4.392 4.392 0 0 1-.63.071c-1.043-.037-2.172-.329-2.942-1.1-.828-.69-1.38-1.933-1.38-3.037zm4.827 6.902a6.526 6.526 0 0 0 1.578-.395 6.99 6.99 0 0 0 3.233-2.344c1.248 1.673 3.246 2.74 5.534 2.74 2.278 0 4.268-1.058 5.517-2.719 1.25 1.66 3.24 2.718 5.517 2.718 2.279 0 4.268-1.057 5.518-2.718 1.249 1.66 3.239 2.718 5.517 2.718 2.278 0 4.268-1.057 5.517-2.718 1.25 1.66 3.239 2.718 5.517 2.718 2.279 0 4.268-1.057 5.517-2.718 1.25 1.66 3.24 2.718 5.518 2.718 2.271 0 4.256-1.051 5.506-2.703.256.33.537.637.838.909.221.177.45.342.684.496a7 7 0 0 0 3.376 1.265l.03.003a6.663 6.663 0 0 0 .6.03v5.522H6.897v-5.522h.69zm6.207 49.696V37.31h16.552v19.326h-2.759c-.827 0-1.38.552-1.38 1.38 0 .829.553 1.38 1.38 1.38h2.759v13.805H13.793zm59.31 0h-40V35.93c0-.828-.551-1.38-1.379-1.38h-19.31c-.828 0-1.38.552-1.38 1.38v37.272H6.897V31.788h66.206v41.413zm4.138-56.874c0 2.04-1.25 3.661-2.936 4.232a1.109 1.109 0 0 0-.236.047c-.203.102-.48.129-.723.136-1.06-.028-2.216-.316-3.001-1.102-.828-.69-1.38-1.933-1.38-3.037V2.799h5.656c1.517 0 2.62 1.242 2.62 2.622v10.906z"/><path d="M38.62 67.68h30.347c.827 0 1.379-.553 1.379-1.38V35.93c0-.829-.552-1.381-1.38-1.381H38.62c-.827 0-1.379.552-1.379 1.38V66.3c0 .828.552 1.38 1.38 1.38zm19.311-6.903c.828 0 1.38-.552 1.38-1.38 0-.828-.552-1.38-1.38-1.38h-8.276c-.828 0-1.38.551-1.38 1.38 0 .828.553 1.38 1.38 1.38h2.759v4.142h-5.556c-.272-4.916-1.988-9.022-4.513-11.044 3.254-2.736 5.648-8.916 5.906-16.565h11.082c.246 7.649 2.524 13.83 5.908 16.565-2.525 2.022-4.24 6.127-4.513 11.044h-5.556v-4.142h2.76zm9.655 4.142h-4.138c.414-4.694 2.207-8.145 4.138-9.25v9.25zm0-27.61v14.772c-2.758-1.519-5.241-7.04-5.517-14.771h5.517zM40 37.31h5.517c-.276 7.73-2.896 13.253-5.517 14.772V37.31zm0 18.36c2.069 1.105 3.862 4.556 4.138 9.25H40v-9.25zm-12.414-5.936V41.45c0-.828-.551-1.38-1.38-1.38h-8.275c-.828 0-1.38.552-1.38 1.38v8.283c0 .828.552 1.38 1.38 1.38h8.276c.828 0 1.38-.552 1.38-1.38zm-2.758-1.38H19.31v-5.522h5.517v5.521z"/></g><defs><clipPath id="la"><path fill="#fff" d="M0 0h80v76H0z"/></clipPath></defs></svg></svg>